<?xml version="1.0" encoding="UTF-8"?>
<svg xmlns="http://www.w3.org/2000/svg" xmlns:xlink="http://www.w3.org/1999/xlink" width="104px" height="40px" viewBox="0 0 103 40" version="1.1">
<g id="surface1">
<path style=" stroke:none;fill-rule:nonzero;fill:rgb(0%,0%,0%);fill-opacity:1;" d="M 91.570312 0.9375 C 91.296875 1.042969 90.226562 1.421875 89.265625 1.804688 C 87.300781 2.535156 86.890625 3.367188 88.058594 4.234375 C 89.058594 4.929688 89.402344 5.867188 89.882812 8.957031 C 90.125 10.554688 90.46875 12.046875 90.675781 12.292969 C 90.984375 12.671875 91.570312 12.671875 93.566406 12.394531 L 96.113281 12.015625 L 95.875 10.453125 C 95.117188 4.722656 94.601562 2.882812 93.773438 2.429688 C 93.328125 2.1875 92.878906 1.703125 92.742188 1.320312 C 92.535156 0.660156 92.429688 0.625 91.570312 0.9375 Z M 91.570312 0.9375 "/>
<path style=" stroke:none;fill-rule:nonzero;fill:rgb(0%,0%,0%);fill-opacity:1;" d="M 78.042969 1.980469 C 77.628906 2.082031 77.492188 2.359375 77.628906 2.777344 C 77.9375 3.785156 78.214844 4.929688 78.386719 6.144531 C 78.523438 7.015625 78.453125 7.292969 78.042969 7.292969 C 77.730469 7.292969 77.386719 7.117188 77.285156 6.910156 C 77.148438 6.703125 76.421875 6.078125 75.667969 5.519531 C 74.152344 4.445312 71.8125 4.132812 71.5 4.964844 C 71.328125 5.382812 71.742188 8.265625 72.015625 8.679688 C 72.121094 8.890625 73.359375 8.855469 74.839844 8.644531 L 75.871094 8.507812 L 77.527344 19.097656 L 79.179688 29.6875 L 78.488281 30.625 C 78.109375 31.179688 77.902344 31.804688 78.042969 32.152344 C 78.214844 32.640625 78.59375 32.707031 80.589844 32.5 C 81.863281 32.394531 84.066406 31.910156 85.441406 31.421875 L 87.957031 30.554688 L 85.992188 30.765625 C 84.308594 30.9375 83.996094 30.867188 83.6875 30.242188 C 83.410156 29.722656 83.445312 29.445312 83.824219 29.027344 C 84.410156 28.4375 84.480469 26.320312 83.996094 23.578125 C 83.824219 22.535156 83.617188 21.214844 83.515625 20.660156 C 83.171875 18.265625 81.519531 8.019531 81.175781 6.285156 C 80.933594 4.929688 80.554688 4.167969 79.796875 3.4375 C 79.210938 2.917969 78.867188 2.328125 78.972656 2.117188 C 79.210938 1.734375 79.109375 1.703125 78.042969 1.980469 Z M 78.042969 1.980469 "/>
<path style=" stroke:none;fill-rule:nonzero;fill:rgb(0%,0%,0%);fill-opacity:1;" d="M 40.898438 5.796875 C 39.589844 6.285156 38.554688 6.839844 38.554688 7.015625 C 38.554688 7.222656 39.175781 8.125 39.933594 9.027344 C 43.308594 13.089844 45.027344 19.410156 44.582031 25.867188 C 44.441406 27.777344 44.269531 30.207031 44.234375 31.285156 C 44.167969 32.394531 43.859375 33.644531 43.546875 34.167969 C 42.515625 35.765625 43.066406 36.214844 45.683594 35.972656 C 47.714844 35.796875 52.910156 34.546875 53.324219 34.167969 C 53.429688 34.0625 52.464844 34.097656 51.191406 34.203125 C 49.195312 34.410156 48.847656 34.339844 48.644531 33.820312 C 48.539062 33.472656 48.675781 32.777344 48.988281 32.222656 C 49.605469 31.109375 49.46875 29.097656 48.230469 22.222656 C 47.851562 20.207031 47.472656 17.742188 47.335938 16.703125 C 47.230469 15.660156 47.023438 14.234375 46.816406 13.578125 C 46.644531 12.882812 46.40625 11.320312 46.265625 10.105469 C 46.0625 8.195312 45.855469 7.671875 44.855469 6.703125 C 44.234375 6.042969 43.789062 5.382812 43.890625 5.171875 C 44.203125 4.6875 43.375 4.828125 40.898438 5.796875 Z M 40.898438 5.796875 "/>
<path style=" stroke:none;fill-rule:nonzero;fill:rgb(0%,0%,0%);fill-opacity:1;" d="M 65.71875 5.382812 C 65.203125 5.660156 64.476562 6.421875 64.066406 7.117188 L 63.34375 8.367188 L 65.0625 19.027344 C 66.027344 24.894531 66.785156 30.035156 66.785156 30.453125 C 66.785156 30.867188 66.507812 31.667969 66.199219 32.257812 C 65.785156 32.953125 65.71875 33.402344 65.925781 33.609375 C 66.40625 34.0625 70.640625 33.542969 73.1875 32.742188 L 75.21875 32.117188 L 73.257812 32.015625 C 71.019531 31.910156 70.503906 31.285156 71.640625 30.105469 C 72.222656 29.480469 72.292969 29.0625 72.121094 27.777344 C 71.535156 23.332031 68.710938 6.320312 68.472656 5.625 C 68.128906 4.722656 67.058594 4.652344 65.71875 5.382812 Z M 65.71875 5.382812 "/>
<path style=" stroke:none;fill-rule:nonzero;fill:rgb(0%,0%,0%);fill-opacity:1;" d="M 25.234375 7.082031 C 22.167969 8.402344 20.929688 9.515625 21.207031 10.625 C 21.585938 12.082031 21 12.222656 19.554688 10.972656 C 17.933594 9.582031 16.214844 9.167969 12.976562 9.480469 C 11.53125 9.617188 10.742188 9.859375 10.429688 10.277344 C 9.742188 11.214844 9.84375 11.355469 11.53125 11.632812 C 12.566406 11.769531 13.527344 12.222656 14.320312 12.953125 C 15.492188 13.957031 15.628906 13.992188 16.628906 13.578125 C 17.246094 13.332031 18.175781 13.019531 18.691406 12.847656 C 19.589844 12.570312 19.621094 12.605469 19.414062 13.296875 C 18.898438 14.964844 18.589844 16.5625 18.589844 17.984375 C 18.589844 19.339844 18.484375 19.515625 17.488281 19.964844 C 16.730469 20.277344 16.558594 20.453125 17.007812 20.484375 C 17.351562 20.484375 18.175781 20.140625 18.832031 19.757812 C 19.828125 19.132812 20.105469 19.097656 20.34375 19.480469 C 20.722656 20.105469 21.136719 23.578125 20.894531 23.855469 C 20.757812 23.957031 20.105469 23.820312 19.382812 23.542969 C 18.660156 23.230469 17.453125 23.019531 16.695312 23.054688 C 15.9375 23.089844 14.597656 23.160156 13.667969 23.195312 C 12.117188 23.265625 12.046875 23.296875 12.117188 24.203125 C 12.152344 24.894531 12.394531 25.207031 12.875 25.242188 C 13.289062 25.277344 14.113281 25.417969 14.699219 25.554688 C 15.421875 25.695312 16.316406 25.554688 17.246094 25.207031 C 18.039062 24.859375 18.796875 24.757812 18.898438 24.894531 C 19.035156 25.035156 19.554688 26.492188 20.070312 28.125 C 20.757812 30.3125 21.445312 31.703125 22.824219 33.507812 C 26.335938 38.160156 29.433594 39.203125 34.804688 37.464844 L 37.351562 36.667969 L 35.285156 36.390625 C 31.773438 35.9375 30.019531 34.757812 27.746094 31.25 C 25.128906 27.222656 23.753906 22.359375 23.753906 17.1875 C 23.753906 13.367188 25.097656 8.957031 26.679688 7.640625 C 27.160156 7.257812 28.089844 5.832031 27.816406 5.9375 C 27.746094 5.972656 26.609375 6.457031 25.234375 7.082031 Z M 25.234375 7.082031 "/>
<path style=" stroke:none;fill-rule:nonzero;fill:rgb(0%,0%,0%);fill-opacity:1;" d="M 49.675781 6.667969 C 48.539062 7.222656 48.710938 8.125 49.984375 8.714844 C 52.152344 9.652344 53.429688 12.917969 52.601562 15.3125 C 52.394531 15.972656 51.742188 16.945312 51.15625 17.5 L 50.089844 18.507812 L 51.222656 18.296875 C 53.394531 17.882812 55.597656 16.632812 56.800781 15.171875 C 57.902344 13.855469 58.007812 13.542969 58.007812 11.5625 C 58.007812 9.167969 57.316406 7.847656 55.5625 6.980469 C 54.289062 6.320312 50.671875 6.144531 49.675781 6.667969 Z M 49.675781 6.667969 "/>
<path style=" stroke:none;fill-rule:nonzero;fill:rgb(0%,0%,0%);fill-opacity:1;" d="M 30.464844 7.777344 C 29.882812 8.019531 29.226562 8.472656 28.953125 8.785156 C 28.574219 9.304688 28.605469 9.410156 29.332031 9.6875 C 32.636719 10.9375 35.320312 16.320312 36.179688 23.402344 C 36.664062 27.429688 36.386719 30.519531 35.320312 32.671875 C 35.011719 33.296875 34.769531 33.855469 34.769531 33.921875 C 34.769531 33.957031 35.320312 34.027344 35.972656 34.027344 C 40.207031 34.027344 42.03125 29.929688 41.308594 21.910156 C 40.929688 17.464844 40.621094 16.144531 39.277344 13.054688 C 37.144531 8.296875 33.839844 6.285156 30.464844 7.777344 Z M 30.464844 7.777344 "/>
<path style=" stroke:none;fill-rule:nonzero;fill:rgb(0%,0%,0%);fill-opacity:1;" d="M 2.238281 9.203125 C -0.207031 10.140625 -0.480469 10.796875 1 12.082031 C 2.03125 12.984375 2.101562 13.230469 3.132812 19.792969 C 3.71875 23.507812 4.542969 28.820312 5.027344 31.597656 L 5.851562 36.632812 L 5.164062 37.570312 C 4.785156 38.089844 4.476562 38.855469 4.476562 39.269531 C 4.476562 39.964844 4.578125 40 7.503906 39.757812 C 10.019531 39.582031 14.457031 38.4375 14.457031 37.953125 C 14.457031 37.882812 13.425781 37.917969 12.1875 38.054688 C 10.429688 38.230469 9.84375 38.195312 9.605469 37.8125 C 9.191406 37.117188 9.191406 37.015625 9.984375 36.214844 C 10.808594 35.3125 10.914062 33.855469 10.363281 30.902344 C 10.15625 29.652344 9.570312 26.144531 9.121094 23.089844 C 7.230469 10.9375 7.195312 10.765625 6.128906 9.964844 C 5.609375 9.582031 5.164062 9.027344 5.164062 8.785156 C 5.164062 8.160156 4.683594 8.230469 2.238281 9.203125 Z M 2.238281 9.203125 "/>
<path style=" stroke:none;fill-rule:nonzero;fill:rgb(0%,0%,0%);fill-opacity:1;" d="M 88.230469 15.382812 C 85.789062 15.660156 85.375 15.796875 85.375 16.390625 C 85.375 16.980469 85.582031 17.015625 87.851562 16.839844 C 89.230469 16.703125 90.503906 16.597656 90.710938 16.5625 C 90.882812 16.527344 91.46875 19.132812 92.019531 22.394531 L 92.980469 28.265625 L 92.257812 29.234375 C 91.878906 29.792969 91.675781 30.417969 91.8125 30.765625 C 91.984375 31.25 92.363281 31.320312 94.460938 31.109375 C 95.804688 30.972656 98.078125 30.484375 99.488281 30 L 102.070312 29.132812 L 99.765625 29.339844 C 97.59375 29.546875 97.421875 29.515625 97.421875 28.890625 C 97.421875 28.507812 97.628906 27.671875 97.90625 27.015625 C 98.351562 25.972656 98.316406 25.417969 97.734375 22.046875 C 97.355469 19.929688 96.976562 17.5 96.839844 16.5625 L 96.632812 14.929688 L 93.84375 14.964844 C 92.292969 15 89.78125 15.171875 88.230469 15.382812 Z M 88.230469 15.382812 "/>
<path style=" stroke:none;fill-rule:nonzero;fill:rgb(0%,0%,0%);fill-opacity:1;" d="M 53.050781 20.519531 L 50.878906 21.214844 L 51.050781 22.464844 C 51.191406 23.160156 51.5 23.957031 51.742188 24.269531 C 52.671875 25.3125 55.425781 30.9375 55.425781 31.769531 C 55.425781 32.222656 55.183594 32.8125 54.90625 33.125 C 54.253906 33.75 54.253906 34.167969 54.90625 34.722656 C 55.285156 35.035156 55.976562 35.035156 57.902344 34.722656 C 60.277344 34.375 65.234375 33.019531 64.996094 32.8125 C 64.925781 32.742188 63.960938 32.847656 62.859375 33.019531 C 61.722656 33.230469 60.621094 33.296875 60.347656 33.195312 C 59.726562 32.953125 59.761719 31.769531 60.417969 31.25 C 61.105469 30.660156 61.070312 29.894531 60.210938 27.917969 C 59.625 26.5625 55.492188 19.722656 55.285156 19.828125 C 55.285156 19.828125 54.253906 20.140625 53.050781 20.519531 Z M 53.050781 20.519531 "/>
</g>
</svg>
